<svg viewBox="0 0 54 54" xmlns="http://www.w3.org/2000/svg"><g fill="#2d2d2d"><path d="m49.5 33.7v-13.4c0-1-.9-1.9-1.9-1.9h-5.9l-3.1-9.6c-.3-1-1.4-1.6-2.4-1.2l-31.3 10c-1 .3-1.6 1.4-1.2 2.4l6.1 19.1c.3 1 1.4 1.6 2.4 1.2l.8-.3c.3.7 1 1.2 1.8 1.2h17.2v4.1c0 1.1.9 2 1.9 2h15.2c1.1 0 1.9-.9 1.9-2v-9.8c0-.8-.7-1.6-1.5-1.8zm-2-13.4v3.4h-32.7v-3.4zm-34.6 17.8-1.4.4-6.1-19 31.3-10 2.9 9h-24.8c-1.1 0-1.9.9-1.9 1.9m1.9 19v-13.8h32.7v8.1h-1.6v-1.9c0-2.1-1.9-3.8-4.2-3.8s-4.2 1.7-4.2 3.8v1.9h-3.7c-1 0-1.9.9-1.9 2v3.8h-17.1zm29-7.6v1.9h-4.2v-1.9c0-1 .9-1.9 2.1-1.9 1.2-.1 2.1.8 2.1 1.9zm5.3 13.6h-15.2v-9.8h15.2z"/><path d="m16.7 34.8c0-.6.5-1.1 1.1-1.1h5.3c.6 0 1.1.5 1.1 1.1s-.5 1.1-1.1 1.1h-5.3c-.6 0-1.1-.5-1.1-1.1z"/><path clip-rule="evenodd" d="m41.5 42.8c-.6 0-1.1-.5-1.1-1.1v-3c0-.6.5-1.1 1.1-1.1s1.1.5 1.1 1.1v3c0 .6-.5 1.1-1.1 1.1z" fill-rule="evenodd"/></g></svg>